PathFileType	4	(X/Y/Z)	31_2_rein_24_p1_0-198_filt_butterworth.trc
DataRate	CameraRate	NumFrames	NumMarkers	Units	OrigDataRate	OrigDataStartFrame	OrigNumFrames
47.0	47.0	7	27	m	47.0	49	198
Frame#	Time	RHip			RKnee			RAnkle			RBigToe			RSmallToe			RHeel			LHip			LKnee			LAnkle			LBigToe			LSmallToe			LHeel			Neck			Head			Nose			RShoulder			RElbow			RWrist			RThumb			RIndex			RPinky			LShoulder			LElbow			LWrist			LThumb			LIndex			LPinky			
		X1	Y1	Z1	X2	Y2	Z2	X3	Y3	Z3	X4	Y4	Z4	X5	Y5	Z5	X6	Y6	Z6	X7	Y7	Z7	X8	Y8	Z8	X9	Y9	Z9	X10	Y10	Z10	X11	Y11	Z11	X12	Y12	Z12	X13	Y13	Z13	X14	Y14	Z14	X15	Y15	Z15	X16	Y16	Z16	X17	Y17	Z17	X18	Y18	Z18	X19	Y19	Z19	X20	Y20	Z20	X21	Y21	Z21	X22	Y22	Z22	X23	Y23	Z23	X24	Y24	Z24	X25	Y25	Z25	X26	Y26	Z26	X27	Y27	Z27	
49	1.0425531914893618	0.1648967640302531	0.4675097093462739	0.16390062729859214	0.119941046995377	0.7239411010071967	0.5319380839513729	0.08922011736154943	1.0549078836928416	0.9060003801977976	0.0665358029604157	0.8129986434039451	0.9952389990597457	0.13183155871814048	0.8977236089690753	0.9989445835932188	0.08870388054136485	1.126680836446937	0.9361658753780202	-0.017557432041982932	0.4860971346694482	0.1287336241158889	-0.027038523557050602	0.7612893356178768	0.5208542270752231	-0.04715193358379234	1.0258223493114849	0.8695458391661712	-0.08654603178836578	0.8268469049988226	0.9761562821099106	-0.12987206676694277	0.9139013802316467	0.9594674461411024	-0.026543908568276955	1.157647662132363	0.9288156732033528	0.1201779424862639	0.18288748072961789	-0.45376590350195456	0.13766046568694618	0.06287793812072162	-0.6855739435152124	0.10097861115929868	0.0486658794021614	-0.5260831493136173	0.28746521605257636	0.20325473742676814	-0.34049135833525596	0.5133141686530561	0.3832437854498062	-0.1986688478075472	0.37240532406368915	0.3494741361713526	0.046262015850787354	0.24024321207346025	0.4025570699517249	0.042897958346258876	0.25456118490848934	0.3654824167566241	0.09029624726092866	0.2738243980134579	0.3766471535356849	0.13228990967970858	-0.06484462379933842	0.2579370379479128	-0.3923689269375846	-0.30837325621377465	0.3952461637592879	-0.28289547496722917	-0.1965454444021525	0.39691512973687476	-0.028656205719980735	-0.10272367230312651	0.43759186552010854	0.0012232248759108987	-0.1154429949694387	0.44252550224698006	0.05014492905244387	-0.16175743701900272	0.4275331467000695	0.06559306431987856
50	1.0638297872340423	0.16558972843342495	0.470731009911709	0.15901078708464128	0.12107572554432193	0.7276884851941772	0.5322259467694761	0.08986342426306697	1.0552731827296062	0.9044591548131028	0.06677730976634967	0.8126365668206068	0.995328062289094	0.1321872690383069	0.8975945033893014	0.9988178669772775	0.09058058727043322	1.1340273768327584	0.9368304102182862	-0.021999738640745083	0.47652913436936994	0.12702140874618995	-0.026697930883518833	0.7671126357379322	0.5177861136703128	-0.047455262788073056	1.02469403145492	0.869656667886902	-0.08550904637589045	0.8263058754199402	0.9761073192714633	-0.1302334995399095	0.9134805539138829	0.9583280928943947	-0.026721834033031317	1.1579840162813984	0.9277659469759624	0.12183627712066251	0.18901932793489928	-0.4607671916386156	0.14126968124719935	0.06761653920749959	-0.6907805924969626	0.1010854661958104	0.048720707505819257	-0.5288641027359697	0.28831543113646424	0.19486605200605694	-0.34309945443331386	0.5316760558688463	0.36233876704019324	-0.22093400892663553	0.3809847979036056	0.33029854689024496	0.019435421017123315	0.25397207016793455	0.38405418190423507	0.0192638165372485	0.27312034619725417	0.34733145197938153	0.06200649736180204	0.2806702366127756	0.3663425647080112	0.10353682274164042	-0.06211065314155513	0.2606187679020119	-0.40040461597669186	-0.3139939322091062	0.3829366360799751	-0.31392826104268506	-0.20084344270134677	0.3913819664620014	-0.059000191201073235	-0.10264953044372718	0.43122450622486264	-0.03381822187379019	-0.11296861919825682	0.4358884262353198	0.011483523201950436	-0.16831743517546807	0.43730354448207526	0.026971381707153574
51	1.0851063829787233	0.16507054119805148	0.4680594076350632	0.15287878914730088	0.1229282931270857	0.7337190354741537	0.5323125230126016	0.09033017733088569	1.0542765202268631	0.9024963239025531	0.06712035724269486	0.813361481205638	0.9952757005149961	0.1317251483355966	0.8969918837597886	0.9985332086022802	0.0921897592079873	1.1381034504032683	0.9358304037787282	-0.025483345711819053	0.4666798690329501	0.12559960878974946	-0.026307467577253153	0.7688280871695359	0.5145484757775938	-0.04734463715285901	1.025352681384225	0.8697648075792905	-0.0835540172653826	0.8255749247940438	0.9773518578192903	-0.12969170740408678	0.9139678690183092	0.9580390443441581	-0.026973199859751124	1.158054414751482	0.9300872555277651	0.12407697957721851	0.19541878634458854	-0.46724383559863314	0.1436777825562814	0.07239922916568664	-0.6943631070955626	0.1012123147314465	0.049475169394672246	-0.5327488574963183	0.28875950237027015	0.18886385686237706	-0.3452542856902039	0.5433193882549837	0.33285074593960695	-0.23379406589545892	0.3862452262236027	0.31991655525352947	-0.007041266207286143	0.26812913633706775	0.3695209103934063	0.0037455393074402126	0.28329444137782417	0.3400896760010644	0.042476699109550334	0.28574090958927256	0.36117091546134394	0.07147266536866079	-0.05964014515573632	0.2622827426553251	-0.4057006550233905	-0.3175245172539941	0.37152880399717964	-0.3363404516688318	-0.2038109236172829	0.38791352401081397	-0.08744095345161285	-0.10044997544565548	0.4230518237415095	-0.06099553806894206	-0.11059786937595417	0.4225532881472279	-0.021333843916950593	-0.17044810418115358	0.43195646763462775	-0.004670921907885785
52	1.1063829787234043	0.16444097658620344	0.4648634351297188	0.14680328355593864	0.1241840195663881	0.7377898798589158	0.532169967848859	0.09059827207253277	1.053661661196622	0.9013006113675005	0.06830735455975828	0.8174341589351393	0.9959021521140763	0.13061293263604618	0.8957905085919273	0.9985271190885432	0.09279753079413786	1.1382219684160515	0.9345944111264041	-0.026501758163925592	0.46221905896148957	0.12518637835642468	-0.026754415917316924	0.7692585889158634	0.5120126708470312	-0.047324361868518336	1.0256869259169092	0.8698910808552912	-0.08140765143532085	0.8250804091691142	0.9788517659642059	-0.1283623004442166	0.9141965181608487	0.9583076914269304	-0.02708606388763496	1.1580667540703613	0.9341175409203356	0.1254986722145162	0.198098796524951	-0.47110164764373197	0.14530178531044244	0.07653984398048996	-0.6968138675921413	0.10133511028527264	0.04943991000056823	-0.5356251669545372	0.2887306875072482	0.18699223819114846	-0.346973893934015	0.5483909197415616	0.31407410573273414	-0.2400933469817792	0.38825118270454123	0.32016505028706094	-0.02462998032672832	0.2794251336633401	0.36117668258402535	-0.00658479377648834	0.2863029097825825	0.34306183303005644	0.03315052904791581	0.2904011442787195	0.36829069679321985	0.04615395661592288	-0.05953923479961137	0.2616842081673023	-0.40824066447675733	-0.32001295694564	0.36250943133239866	-0.34367548256003655	-0.20486001365788986	0.38451463283167175	-0.11009883435818571	-0.09811502063643499	0.41645913521533084	-0.07585251754407848	-0.10809796821097474	0.4055958366204727	-0.040598985471990985	-0.17084918977479197	0.4197465913026945	-0.026909585951799597
53	1.127659574468085	0.16427480633868596	0.4637366810490646	0.1433517579746588	0.12440863739096913	0.7386201823191642	0.5320336249668421	0.09044891565315599	1.0538868682433515	0.901778423816841	0.07000395939371883	0.8236541377208264	0.9976529482465853	0.1294960145076139	0.8948823739625322	0.999436281546868	0.09274077091443847	1.1374201455299835	0.9345871042608996	-0.02709246812841596	0.4619693494285141	0.12613212736917656	-0.028790479412605225	0.7729359333993177	0.5101011268637711	-0.04732529321863598	1.0256917097774467	0.8700490766434329	-0.07973356860008303	0.8249333177287583	0.9790507919041493	-0.1267541992493923	0.9163554966212927	0.9584570783210153	-0.027103346711435185	1.1580541468169734	0.9366510721409629	0.12572875585956989	0.19688932343556156	-0.47401928752425926	0.14620465798039026	0.07873670463714912	-0.698744448737302	0.10139428640550618	0.048751835532336994	-0.5372680214611368	0.2885915908432075	0.18700136466264455	-0.3485540785794571	0.550103501094989	0.30956533797347885	-0.24486823191950172	0.3879640043075956	0.32324294941239573	-0.03287639494968092	0.2845759657637995	0.36135589123855394	-0.020306374623432794	0.28675736961489473	0.34963017771958926	0.027388804383060218	0.29613881167309164	0.38490264646941524	0.03342864968995742	-0.06054957357894271	0.2593445190188406	-0.41074569558572516	-0.3222829158999424	0.3551692954130845	-0.34343240783193446	-0.20402349965761607	0.3814744550252847	-0.12527405709273604	-0.09597653712036248	0.4111013970175919	-0.08358540802883675	-0.10486608198052172	0.39592963522085617	-0.04889842383799481	-0.1704978037189427	0.41161141024079384	-0.04099989066604764
54	1.148936170212766	0.16448522793707118	0.46393380992363875	0.14336862310009837	0.12423261542158417	0.7381651492065787	0.5319968819409308	0.09010774067727566	1.0547212899945033	0.9034611011791243	0.07129729987504564	0.828352870145052	0.9996698384948447	0.12878052753480593	0.8955377994564105	1.0010848903188674	0.09251680152538055	1.1374252385318033	0.9354948557000247	-0.02869701766753062	0.465636270121188	0.12707731284165893	-0.03145282103299005	0.7794954468907633	0.5088939794000058	-0.04722576635897957	1.0257656411509615	0.8701979352279104	-0.07888847753898802	0.8248947392918727	0.9777944990399543	-0.12567622195741016	0.9190992560248623	0.958163691705762	-0.02711819518876847	1.158089874814542	0.9370267767239036	0.1255147251109518	0.19446145576540566	-0.47743145296949396	0.14641868276192055	0.0789091247226775	-0.7001906705232693	0.10134098563309006	0.047677478071759205	-0.5381864640295387	0.2885052354873423	0.18684941757745482	-0.3502354922850264	0.5511594414641442	0.31053601336320247	-0.2483620672474765	0.3866117212200738	0.3234936899341251	-0.036375028175583066	0.2840692394786557	0.37051986632469225	-0.037551794115436896	0.287226344366861	0.35203315078382935	0.02005035807904874	0.3017705649296691	0.3978271506370807	0.030135471520184188	-0.061100482345912	0.2569696970170807	-0.41382093233202166	-0.3238017352210663	0.35053499235915575	-0.34306519771109845	-0.20019522668535444	0.37974312417544004	-0.13279433140893443	-0.092671622832305	0.4039943028032374	-0.08985948449032677	-0.10115493913834801	0.3970433965255451	-0.053126254794131904	-0.1676861203512518	0.41026214754515006	-0.04879076811516732
55	1.1702127659574468	0.16489847723447143	0.46405629735790627	0.14492830869466244	0.1241347605337726	0.7378734593510283	0.5320222011290674	0.09044781822408512	1.0558615442435353	0.9049143532894729	0.07175469937254608	0.8298259486674548	1.0007275053452989	0.1283348895630848	0.8966392255566122	1.002294296834445	0.09218091729384288	1.1382074152550627	0.9362303740134144	-0.030585365241389353	0.4713101266361803	0.12727298504887238	-0.03328449860967538	0.7840929178958232	0.5085048076606814	-0.0474595950055534	1.0257608095377073	0.8702820077250057	-0.07876430078699438	0.8248528818048522	0.9765887761059912	-0.1252833449194006	0.9203090106241563	0.9582290980486571	-0.027114610368156936	1.1582455798892934	0.9367541128937409	0.12572155726062229	0.19312432837997334	-0.47987528075782065	0.14637030241653748	0.07846735686689177	-0.7009226085091521	0.10160150680886092	0.04694610948306008	-0.538632919633486	0.2884715108009914	0.18633441594288394	-0.351804938740322	0.552119937557382	0.3109288718605441	-0.25009966309939147	0.3850000868829262	0.3217632164315538	-0.03768140592691624	0.28026717325182365	0.37982721760352467	-0.049125431110382936	0.2872392219085651	0.34784941553050575	0.011567708616823895	0.30386753990134097	0.39785686580106827	0.030722180569564078	-0.060870905766411285	0.2560099196258653	-0.41602518657388954	-0.3240688828812296	0.3493991531914294	-0.34351773889553133	-0.19366955312533596	0.378500541875165	-0.13549134876281652	-0.08766796807267976	0.3964843062110888	-0.09434867941559094	-0.0970069750073478	0.4025587774420478	-0.056892498208948795	-0.16122677669455257	0.4115008002037736	-0.05190029784420314
